HIERARCHY
ROOT root     
{
	OFFSET 0.0000 0.0000 0.0000
	CHANNELS 6 Xposition Yposition Zposition Zrotation Yrotation Xrotation
	JOINT pelvis   
	{
		OFFSET 0.0000 0.0000 0.0000
		CHANNELS 3 Zrotation Yrotation Xrotation
		JOINT thorax   
		{
			OFFSET 0.0000 23.0750 -5.0000
			CHANNELS 3 Zrotation Yrotation Xrotation
			JOINT rclavicle
			{
				OFFSET 0.0000 28.0009 0.0000
				CHANNELS 3 Zrotation Yrotation Xrotation
				JOINT rhumerus 
				{
					OFFSET -18.5725 5.5939 0.0000
					CHANNELS 3 Zrotation Yrotation Xrotation
					JOINT rradius  
					{
						OFFSET -24.8459 0.0000 0.0000
						CHANNELS 3 Zrotation Yrotation Xrotation
						JOINT rhand    
						{
							OFFSET -24.5477 0.0000 0.0000
							CHANNELS 3 Zrotation Yrotation Xrotation
							End Site
							{
								OFFSET -8.1826 0.0000 0.0000
							}
						}
					}
				}
			}
			JOINT lclavicle
			{
				OFFSET 0.0000 28.0009 0.0000
				CHANNELS 3 Zrotation Yrotation Xrotation
				JOINT lhumerus 
				{
					OFFSET 18.5725 5.5939 0.0000
					CHANNELS 3 Zrotation Yrotation Xrotation
					JOINT lradius  
					{
						OFFSET 24.8459 0.0000 0.0000
						CHANNELS 3 Zrotation Yrotation Xrotation
						JOINT lhand    
						{
							OFFSET 24.5477 0.0000 0.0000
							CHANNELS 3 Zrotation Yrotation Xrotation
							End Site
							{
								OFFSET 8.1826 0.0000 0.0000
							}
						}
					}
				}
			}
			JOINT head     
			{
				OFFSET 0.0000 35.2030 0.0000
				CHANNELS 3 Zrotation Yrotation Xrotation
				End Site
				{
					OFFSET 0.0000 11.7343 0.0000
				}
			}
		}
		JOINT rfemur   
		{
			OFFSET -8.2817 0.0000 0.0000
			CHANNELS 3 Zrotation Yrotation Xrotation
			JOINT rtibia   
			{
				OFFSET 0.0000 -43.3627 0.0000
				CHANNELS 3 Zrotation Yrotation Xrotation
				JOINT rfoot    
				{
					OFFSET 0.0000 -38.2947 0.0000
					CHANNELS 3 Zrotation Yrotation Xrotation
					JOINT rtoes    
					{
						OFFSET 0.0000 0.0000 16.6054
						CHANNELS 3 Zrotation Yrotation Xrotation
						End Site
						{
							OFFSET 0.0000 0.0000 5.5351
						}
					}
				}
			}
		}
		JOINT lfemur   
		{
			OFFSET 8.2817 0.0000 0.0000
			CHANNELS 3 Zrotation Yrotation Xrotation
			JOINT ltibia   
			{
				OFFSET 0.0000 -43.3627 0.0000
				CHANNELS 3 Zrotation Yrotation Xrotation
				JOINT lfoot    
				{
					OFFSET 0.0000 -38.2947 0.0000
					CHANNELS 3 Zrotation Yrotation Xrotation
					JOINT ltoes    
					{
						OFFSET 0.0000 0.0000 16.6054
						CHANNELS 3 Zrotation Yrotation Xrotation
						End Site
						{
							OFFSET 0.0000 0.0000 5.5351
						}
					}
				}
			}
		}
	}
}
MOTION
Frames: 19
Frame Time: .0333333
-29.328 82.395 7.5528 -102.609 88.4073 -86.1063 0 -0 0 -5.89784 1.14526 -9.38533 24.6548 -9.45148 -2.51868e-05 36.504 12.476 19.826 -180 78.3954 -180 2.35514 8.20155 0.168902 -20.9345 20.308 -1.78292e-05 -44.2817 15.5528 -7.06176 180 -77.0552 180 7.09891 -0.833805 -0.0516992 7.13641 9.15909 -1.70423 1.37422 -16.1492 -2.51831 -0 -0 39.1163 -4.03464e-06 18.6479 20.1424 6.62854 -1.28251e-05 -82.7334 -15.0425 4.56266 -39.4429 -0 -0 25.8174 -6.50153e-07 6.37239 1.13198 -179.874 -1.54355e-08 -0.250392 
-28.372 82.21 7.5348 -100.356 88.5396 -83.8077 0 -0 0 -6.58885 1.14269 -9.68989 24.8965 -9.42684 1.80361e-05 37.619 12.0603 19.3714 -180 78.7225 -180 2.32784 8.39593 0.170904 -21.4133 20.4459 -0.000252348 -44.2077 14.7907 -7.43854 180 -77.4996 -180 7.57874 -0.878291 -0.058201 8.39053 9.45167 -1.36752 0.577698 -16.6071 -3.48617 -0 -0 41.7437 4.04214e-05 20.6296 21.6864 7.91988 8.77428e-06 -82.6505 -14.6454 3.61261 -39.9044 -0 -0 28.0363 6.23103e-08 7.00546 0.2144 -179.974 1.13583e-08 -3.25389 
-27.434 82.076 7.4868 -94.672 88.6625 -78.1383 0 -0 0 -7.24155 1.23692 -9.88303 25.0499 -9.3908 -3.41515e-05 38.9747 11.6142 18.9033 -180 79.1769 -180 2.24734 8.51729 0.167402 -21.9745 20.5687 2.09904e-05 -44.1436 13.8384 -7.73277 180 -78.1903 -180 8.07247 -0.869897 -0.0614004 9.43785 9.81923 -1.05566 -0.244408 -16.8349 -4.48815 -0 -0 44.3632 6.53727e-05 22.185 23.3298 9.17363 -9.91446e-06 -81.9075 -14.3809 2.87874 -40.1718 -0 -0 29.9773 -8.31917e-08 7.59633 -0.705408 179.906 6.24054e-08 -5.05599 
-26.512 81.996 7.4144 -84.6717 88.8477 -68.2239 0 -0 0 -7.82566 1.42622 -9.96316 25.1183 -9.33458 3.49426e-05 40.5353 11.1274 18.4133 -180 79.7423 -180 2.07826 8.53944 0.155204 -22.601 20.6612 -1.25161e-05 -44.1251 12.731 -7.94916 180 -79.1172 180 8.58528 -0.792399 -0.0594999 10.267 10.2573 -0.766401 -1.05559 -16.8601 -5.49612 -0 -0 46.9184 -0.000101594 23.179 25.0133 10.2621 -1.71131e-05 -80.5861 -14.2284 2.35516 -40.2045 -0 -0 31.5645 6.31212e-06 8.15541 -1.62643 179.767 3.5858e-07 -5.91503 
-25.602 81.97 7.3229 -70.8537 88.9006 -54.5608 0 -0 0 -8.31771 1.70094 -9.93283 25.1138 -9.25043 -3.83602e-05 42.2512 10.5956 17.8969 -180 80.4002 -180 1.78504 8.43722 0.131703 -23.2638 20.7118 -0.000150791 -44.1886 11.5136 -8.09093 180 -80.2513 -180 9.12197 -0.634903 -0.0505999 10.8802 10.7572 -0.494773 -1.82919 -16.7225 -6.48268 -0 -0 49.3671 -2.94888e-05 23.5087 26.6774 11.0507 -7.39574e-06 -78.864 -14.16 2.02095 -39.9791 -0 -0 32.7513 -5.76695e-06 8.68983 -2.53563 179.613 3.21544e-07 -6.04804 
-24.703 81.994 7.219 -56.3231 88.9125 -40.2636 0 -0 0 -8.68989 2.04404 -9.80206 25.0478 -9.13128 -3.40535e-05 44.0666 10.0158 17.3505 -180 81.1394 -180 1.33679 8.19032 0.0956992 -23.9384 20.709 -0.000145767 -44.3633 10.238 -8.16093 180 -81.5423 -180 9.68519 -0.392299 -0.0332005 11.2891 11.3079 -0.233841 -2.5339 -16.464 -7.42388 -0 -0 51.6703 0.000140087 23.1063 28.2571 11.4194 -4.84585e-05 -76.9864 -14.1408 1.85028 -39.496 -0 -0 33.5317 -7.62554e-06 9.19592 -3.41004 179.448 -3.39936e-07 -5.63348 
-23.808 82.064 7.1055 -44.8253 88.789 -29.0615 0 -0 0 -8.93815 2.43364 -9.58058 24.9406 -8.97925 3.78091e-06 45.9176 9.40541 16.781 -180 81.9202 -180 0.708811 7.78462 0.0482013 -24.5929 20.6548 -8.85445e-05 -44.6735 8.94763 -8.15433 180 -82.9637 180 10.2733 -0.0696 -0.0063001 11.5201 11.8969 0.0230444 -3.16373 -16.1303 -8.29756 -0 -0 53.7937 0.000157155 21.9584 29.6809 11.29 -2.27716e-05 -75.1938 -14.1436 1.80627 -38.7622 -0 -0 33.914 2.88198e-06 9.66998 -4.21741 179.282 1.20906e-07 -4.8382 
-22.918 82.174 6.9873 -37.993 88.593 -22.5765 0 -0 0 -9.05166 2.8441 -9.28632 24.809 -8.79777 -1.19898e-06 47.7412 8.78158 16.1989 -180 82.7307 -180 -0.106899 7.21857 -0.00669996 -25.2027 20.5542 -0.000116747 -45.1276 7.69098 -8.06842 180 -84.4423 -180 10.8795 0.319898 0.0305002 11.605 12.5119 0.284226 -3.70361 -15.7497 -9.09117 -0 -0 55.7106 -0.000179166 20.0949 30.8706 10.632 2.38809e-05 -73.634 -14.136 1.85612 -37.8036 -0 -0 33.936 2.64563e-07 10.0972 -4.92892 179.123 3.96945e-08 -3.83587 
-22.031 82.317 6.8688 -35.3612 88.4045 -20.3365 0 -0 0 -9.02394 3.24647 -8.94612 24.6666 -8.59131 9.47985e-05 49.4843 8.15826 15.6216 -180 83.5427 -180 -1.09571 6.5059 -0.0623012 -25.7515 20.4104 3.98965e-06 -45.7269 6.51381 -7.90103 180 -85.9297 180 11.4905 0.754108 0.0759011 11.5787 13.1422 0.559121 -4.13781 -15.3452 -9.80649 -0 -0 57.4018 0.000166172 17.6043 31.742 9.47677 -3.15963e-05 -72.3264 -14.0887 1.96548 -36.6705 -0 -0 33.6549 1.68512e-06 10.4603 -5.52197 178.982 -9.11232e-08 -2.81235 
-21.15 82.488 6.751 -35.881 88.2214 -21.2663 0 -0 0 -8.86911 3.61148 -8.58524 24.534 -8.3734 -6.32228e-05 51.0944 7.55786 15.0707 -180 84.3313 -180 -2.22285 5.67993 -0.110302 -26.2244 20.2365 0.000167646 -46.4563 5.44543 -7.64395 180 -87.3908 180 12.0851 1.20418 0.1275 11.4839 13.779 0.854516 -4.47111 -14.9347 -10.4499 -0 -0 58.859 0.000182712 14.6387 32.2099 7.92603 -4.11281e-05 -71.1812 -13.988 2.09547 -35.4085 -0 -0 33.1341 -1.23635e-06 10.7495 -5.98198 178.866 -9.25716e-07 -1.94353 
-20.277 82.68 6.6349 -38.7963 88.0731 -24.5894 0 -0 0 -8.60188 3.91148 -8.23323 24.4213 -8.15602 -2.43011e-05 52.5367 6.99531 14.5694 -180 85.099 -180 -3.42972 4.79308 -0.1436 -26.6133 20.0459 0.000101147 -47.2931 4.51265 -7.29169 180 -88.7439 -180 12.6367 1.63914 0.181504 11.359 14.4175 1.17665 -4.70738 -14.5268 -11.0402 -0 -0 60.0787 6.61398e-06 11.4016 32.2171 6.13655 9.0619e-06 -70.0596 -13.8238 2.21045 -34.0735 -0 -0 32.4418 -2.35872e-06 10.9588 -6.30583 178.782 -8.95877e-08 -1.36078 
-19.416 82.888 6.52 -43.6745 87.9201 -29.8405 0 -0 0 -8.24354 4.12207 -7.91504 24.3406 -7.95669 6.79642e-05 53.7839 6.48656 14.1436 -180 85.8147 -180 -4.64687 3.91247 -0.158801 -26.9182 19.8542 -0.000172839 -48.204 3.72265 -6.83423 180 -89.8152 180 13.113 2.02856 0.233185 11.2385 15.0555 1.52795 -4.85558 -14.1256 -11.5998 -0 -0 61.0658 6.4866e-05 8.12893 31.7472 4.29802 -7.547e-05 -68.8269 -13.5946 2.27881 -32.7193 -0 -0 31.6443 -4.9724e-06 11.0889 -6.49892 178.729 4.80139e-07 -1.12011 
-18.573 83.108 6.4061 -50.2061 87.8005 -36.6976 0 -0 0 -7.81385 4.22606 -7.65427 24.3006 -7.78875 -1.24218e-06 54.8239 6.03655 13.8136 -180 86.4833 -180 -5.79708 3.11133 -0.157605 -27.1452 19.6699 -5.07513e-05 -49.1497 3.0805 -6.266 0 -88.9973 0 13.4813 2.34807 0.277591 11.1483 15.6945 1.90887 -4.92547 -13.732 -12.1545 -0 -0 61.8326 -3.09205e-05 5.04806 30.8328 2.59213 3.2206e-05 -67.39 -13.3068 2.27683 -31.3966 -0 -0 30.8008 5.19422e-06 11.1436 -6.57526 178.708 -9.0564e-07 -1.19575 
-17.751 83.335 6.2923 -58.1324 87.6837 -44.88 0 -0 0 -7.33279 4.21479 -7.46938 24.3002 -7.66207 4.75028e-05 55.6567 5.64121 13.5912 -180 87.0853 -180 -6.8052 2.46049 -0.146297 -27.3046 19.5006 -8.37919e-05 -50.0864 2.58357 -5.58305 -3.31518e-06 -88.1397 3.20847e-06 13.708 2.5797 0.310087 11.1064 16.3375 2.31749 -4.9283 -13.3418 -12.7297 -0 -0 62.3917 1.85726e-06 2.34434 29.5595 1.15702 6.82209e-06 -65.7822 -12.9672 2.1922 -30.1481 -0 -0 29.9595 4.51023e-06 11.1317 -6.55364 178.713 -1.65281e-06 -1.49866 
-16.955 83.568 6.1771 -67.1024 87.5347 -54.0251 0 -0 0 -6.81951 4.08858 -7.36721 24.3395 -7.586 5.85162e-05 56.2856 5.29943 13.4839 -180 87.5909 -180 -7.60742 2.01956 -0.134298 -27.4076 19.3505 0.000170397 -50.9785 2.21864 -4.78478 0 -87.4676 0 13.7658 2.71323 0.327612 11.121 16.9873 2.74738 -4.87929 -12.9534 -13.3429 -0 -0 62.7541 3.54376e-07 0.136301 28.0495 0.0641014 -2.20635e-07 -64.1332 -12.5929 2.0232 -28.9958 -0 -0 29.1483 -4.1904e-06 11.0629 -6.45594 178.741 -3.95341e-07 -1.90816 
-16.183 83.805 6.0593 -76.6471 87.3385 -63.6658 0 -0 0 -6.2882 3.85671 -7.34441 24.4146 -7.56802 3.06715e-05 56.7226 5.00952 13.4914 -180 88.0461 -180 -8.15172 1.83404 -0.130706 -27.4699 19.224 -2.77119e-05 -51.7905 1.96283 -3.87245 -5.52686e-06 -86.9996 5.24443e-06 13.6344 2.74526 0.328207 11.1903 17.6491 3.18913 -4.7947 -12.5636 -14.0031 -0 -0 62.9385 5.32019e-06 -1.52468 26.4192 -0.678494 5.66655e-07 -62.4176 -12.1972 1.78021 -27.9472 -0 -0 28.38 -1.05281e-05 10.9471 -6.30462 178.783 1.05326e-06 -2.30427 
-15.435 84.043 5.9378 -86.1617 87.0882 -73.2058 0 -0 0 -5.74859 3.53568 -7.39016 24.518 -7.60905 3.88641e-05 56.9825 4.76644 13.6006 -180 88.3817 -180 -8.39634 1.93287 -0.141896 -27.503 19.1152 0.000200422 -52.4972 1.79273 -2.85398 4.06752e-06 -86.7295 -4.61792e-06 13.3059 2.67855 0.312509 11.3056 18.3247 3.63135 -4.68839 -12.1719 -14.7079 -0 -0 62.9565 -5.09554e-06 -2.65403 24.7887 -1.11342 1.99023e-06 -60.8115 -11.7943 1.48228 -26.9967 -0 -0 27.6513 -7.64448e-06 10.7923 -6.11974 178.836 -9.09651e-07 -2.58912 
-14.707 84.281 5.8118 -95.1185 86.7703 -82.1317 0 -0 0 -5.20867 3.14782 -7.48663 24.6403 -7.70594 1.07855e-05 57.078 4.56607 13.7888 -180 88.6773 -180 -8.31253 2.32769 -0.169196 -27.5167 19.0202 0.000102954 -53.0833 1.68456 -1.74297 0 -86.6257 0 12.7888 2.5208 0.282505 11.4528 19.0154 4.06142 -4.5737 -11.7786 -15.45 -0 -0 62.8134 3.73961e-06 -3.31682 23.2672 -1.31149 5.23855e-06 -59.54 -11.3971 1.15144 -26.1214 -0 -0 26.9463 -2.89363e-07 10.6072 -5.91638 178.894 2.2735e-07 -2.69737 
-13.996 84.517 5.6811 -103.117 86.4093 -90.0624 0 -0 0 -4.66839 2.71652 -7.60981 24.7738 -7.8533 3.67675e-05 57.0241 4.40789 14.0271 -180 88.8905 -180 -7.88581 3.00937 -0.207499 -27.5189 18.933 -9.37721e-05 -53.5417 1.60983 -0.554398 3.58731e-06 -86.6843 -3.80086e-06 12.1065 2.28457 0.242304 11.6145 19.7191 4.46545 -4.45872 -11.386 -16.2103 -0 -0 62.522 -1.39143e-05 -3.60253 21.9107 -1.34575 3.68492e-05 -58.5225 -11.0122 0.813611 -25.2937 -0 -0 26.2461 -1.96231e-06 10.3955 -5.70492 178.955 4.77148e-07 -2.59779 
